<?xml version="1.0" encoding="UTF-8" standalone="no"?>
<!DOCTYPE svg PUBLIC "-//W3C//DTD SVG 1.1//EN" "http://www.w3.org/Graphics/SVG/1.1/DTD/svg11.dtd">
<svg width="100%" height="100%" viewBox="0 0 1080 1080" version="1.1" xmlns="http://www.w3.org/2000/svg" xmlns:xlink="http://www.w3.org/1999/xlink" xml:space="preserve" xmlns:serif="http://www.serif.com/" style="fill-rule:evenodd;clip-rule:evenodd;stroke-linejoin:round;stroke-miterlimit:2;">
    <g>
        <path d="M188.038,669.936l-161.561,-129.942l476.911,-411.959l-393.603,411.959l121.025,123.523c-14.209,1.49 -28.493,3.621 -42.772,6.419Z" style="fill:#0063be;"/>
        <path d="M497.055,145.095c-0.351,1.091 -0.692,2.18 -1.022,3.268l-279.118,391.631l87.036,121.407c-16.182,-0.768 -32.641,-0.715 -49.26,0.205l-112.275,-121.612l354.639,-394.899Z" style="fill:#0063be;"/>
        <path d="M509.988,283.317c5.772,9.927 12.58,19.398 20.313,28.37l-9.71,228.307l8.625,203.152c-8.956,-8.041 -18.734,-15.575 -29.236,-22.566l-31.711,-180.586l41.719,-256.677Z" style="fill:#0063be;"/>
        <path d="M489.534,225.661c1.645,10.984 4.418,21.613 8.221,31.836l-68.208,282.497l45.409,165.68c-17.925,-9.542 -37.415,-17.702 -58.097,-24.34l-56.381,-141.34l129.056,-314.333Z" style="fill:#0063be;"/>
        <path d="M490.38,172.003c-1.891,10.914 -2.733,21.579 -2.597,31.979l-164.881,336.012l64.416,133.092c-16.421,-3.927 -33.426,-6.949 -50.857,-9.006l-84.584,-124.086l238.503,-367.991Z" style="fill:#0063be;"/>
    </g>
    <g>
        <path d="M891.962,410.064l161.561,129.942l-476.911,411.959l393.603,-411.959l-121.025,-123.523c14.209,-1.49 28.493,-3.621 42.772,-6.419Z" style="fill:#0063be;"/>
        <path d="M582.945,934.905c0.351,-1.091 0.692,-2.18 1.022,-3.268l279.118,-391.631l-87.036,-121.407c16.182,0.768 32.641,0.715 49.26,-0.205l112.275,121.612l-354.639,394.899Z" style="fill:#0063be;"/>
        <path d="M570.012,796.683c-5.772,-9.927 -12.58,-19.398 -20.313,-28.37l9.71,-228.307l-8.625,-203.152c8.956,8.041 18.734,15.575 29.236,22.566l31.711,180.586l-41.719,256.677Z" style="fill:#0063be;"/>
        <path d="M590.466,854.339c-1.645,-10.984 -4.418,-21.613 -8.221,-31.836l68.208,-282.497l-45.409,-165.68c17.925,9.542 37.415,17.702 58.097,24.34l56.381,141.34l-129.056,314.333Z" style="fill:#0063be;"/>
        <path d="M589.62,907.997c1.891,-10.914 2.733,-21.579 2.597,-31.979l164.881,-336.012l-64.416,-133.092c16.421,3.927 33.426,6.949 50.857,9.006l84.584,124.086l-238.503,367.991Z" style="fill:#0063be;"/>
    </g>
</svg>